<mxfile host="app.diagrams.net" modified="2023-06-24T20:31:15.343Z" agent="Mozilla/5.0 (X11; Linux x86_64; rv:109.0) Gecko/20100101 Firefox/114.0" version="21.3.8" etag="9YjLg7LBWNSVEdx1n8bM" type="github">
  <diagram name="Страница 1" id="xqyo1aCv6y1s4ilyNs6u">
    <mxGraphModel>
      <root>
        <mxCell id="0" />
        <mxCell id="1" parent="0" />
      </root>
    </mxGraphModel>
  </diagram>
</mxfile>
